<svg xmlns="http://www.w3.org/2000/svg" width="400" height="280" viewBox="0 0 400 280" fill="none">
  <rect width="400" height="280" rx="16" fill="#F7F6FB"/>
  <path d="M90 210c20-60 70-90 110-90s90 30 110 90" stroke="#8B6BF3" stroke-width="8" stroke-linecap="round" stroke-linejoin="round"/>
  <circle cx="150" cy="130" r="16" fill="#8B6BF3"/>
  <circle cx="250" cy="130" r="16" fill="#8B6BF3"/>
  <path d="M200 155c-8 6-16 6-24 0" stroke="#1B1C33" stroke-width="6" stroke-linecap="round"/>
  <path d="M130 110l-14-34c-2-5 3-10 8-8l31 12c5 2 6 8 2 12l-23 20c-3 3-8 2-10-2Z" fill="#E0D9FF"/>
  <path d="M270 110l14-34c2-5-3-10-8-8l-31 12c-5 2-6 8-2 12l23 20c3 3 8 2 10-2Z" fill="#E0D9FF"/>
  <path d="M180 182h40" stroke="#1B1C33" stroke-width="6" stroke-linecap="round"/>
  <text x="200" y="240" text-anchor="middle" fill="#8B6BF3" font-size="20" font-family="'Inter', sans-serif">ChatGuardian</text>
</svg>
